<?xml version="1.0" standalone="no"?><!DOCTYPE svg PUBLIC "-//W3C//DTD SVG 1.1//EN" "http://www.w3.org/Graphics/SVG/1.1/DTD/svg11.dtd"><svg t="1681369454221" class="icon" viewBox="0 0 1024 1024" version="1.1" xmlns="http://www.w3.org/2000/svg" p-id="1816" xmlns:xlink="http://www.w3.org/1999/xlink" width="200" height="200"><path d="M940.8 467.2l-313.6-64c-19.2-6.4-38.4 0-51.2 6.4V96c6.4-12.8 6.4-32 0-51.2-12.8-32-51.2-44.8-83.2-32l-435.2 192c-32 12.8-44.8 51.2-32 83.2 6.4 12.8 19.2 25.6 38.4 32v608c0 51.2 44.8 96 96 96h704c51.2 0 96-44.8 96-96V588.8c12.8-6.4 25.6-25.6 32-38.4 6.4-38.4-19.2-70.4-51.2-83.2zM512 928c0 19.2-12.8 32-32 32h-96V768H256v192h-96c-19.2 0-32-12.8-32-32V307.2l384-166.4V928z m384-320v320c0 19.2-12.8 32-32 32h-96V832h-64v128H576V518.4h6.4c6.4 6.4 12.8 6.4 19.2 6.4l300.8 64c-6.4 6.4-6.4 12.8-6.4 19.2z" fill="#004198" p-id="1817"></path><path d="M704 704h64v64h-64z m0-128h64v64h-64z m-448 64h128v64H256z m0-128h128v64H256z m0-128h128v64H256z" fill="#004198" p-id="1818"></path></svg>                           